<?xml version="1.0" encoding="UTF-8" standalone="no"?>
<!-- Created with Inkscape (http://www.inkscape.org/) -->

<svg
   version="1.1"
   id="svg1"
   width="197"
   height="197"
   viewBox="0 0 197 197"
   xmlns="http://www.w3.org/2000/svg"
   xmlns:svg="http://www.w3.org/2000/svg">
  <defs
     id="defs1" />
  <g
     id="g1">
    <circle
       style="fill:#ffffff;fill-opacity:1;stroke-width:0.139139"
       id="path2"
       cx="98.5"
       cy="98.5"
       r="94.652344" />
    <path
       style="fill:#203a55;stroke-width:0.283207"
       d="m 90.783,196.8675 c -0.620382,-0.0918 -3.567531,-0.51645 -6.549217,-0.94379 C 63.572608,192.96246 42.958411,182.57957 28.518609,167.86126 12.825789,151.86576 3.3531004,132.49194 0.52694774,110.61186 -0.3692819,103.67326 -0.08246102,89.462724 1.0853173,82.947453 4.7069525,62.74162 14.23914,44.303681 28.546918,29.828977 45.654806,12.521491 68.575906,1.9960778 93.003692,0.23029738 99.351307,-0.22854479 104.14802,-0.02218323 111.68501,1.0339934 139.51685,4.9341397 165.52142,21.437897 180.99868,45.023785 191.78167,61.456062 197,78.995577 197,98.806412 c 0,32.426928 -15.6656,62.644258 -41.69197,80.419508 -12.93486,8.83414 -27.34267,14.52125 -42.90564,16.93592 -3.78202,0.58679 -19.052534,1.08523 -21.61939,0.70566 z M 77.209075,176.58347 c 2.537766,-0.71071 3.787954,-1.75748 5.9935,-5.01832 0.452151,-0.6685 0.611527,-0.66426 4.588407,0.12204 5.169957,1.0222 13.116068,1.3742 17.843598,0.79044 3.48235,-0.43001 10.28368,-1.71033 11.41811,-2.14941 0.38745,-0.14996 0.8011,0.24008 1.30903,1.23435 1.69848,3.32475 4.59195,5.06148 8.41019,5.04802 6.20104,-0.0219 9.93327,-4.91679 8.81292,-11.55839 l -0.25589,-1.51695 2.97477,-1.9679 c 2.9737,-1.96719 2.97501,-1.96762 3.67029,-1.19216 1.91292,2.13349 6.6193,3.19478 9.25037,2.08595 3.74153,-1.57681 5.92076,-4.77275 5.92076,-8.68306 0,-1.21723 -0.2515,-2.82025 -0.55888,-3.56227 l -0.55887,-1.34913 2.37864,-3.47396 c 3.29691,-4.81509 5.89232,-9.49638 8.66418,-15.62743 2.33131,-5.1566 2.38478,-5.23456 3.89922,-5.68558 5.21223,-1.55229 7.93999,-6.48423 6.41877,-11.60548 -0.55403,-1.86515 -2.62012,-4.31325 -4.42323,-5.24107 l -1.39487,-0.71776 0.33843,-2.96672 c 0.47092,-4.128037 0.07,-12.314401 -0.87838,-17.934384 -0.61496,-3.644278 -0.69116,-4.764154 -0.3324,-4.884772 1.11892,-0.376193 3.55722,-3.058054 4.36221,-4.797951 1.54501,-3.339349 0.95543,-6.697416 -1.71434,-9.764375 -1.68952,-1.940874 -3.93039,-2.937501 -6.63747,-2.952016 l -2.23122,-0.01197 -2.24968,-3.807638 c -1.23733,-2.094199 -3.29707,-5.143647 -4.57722,-6.776548 l -2.32753,-2.968917 0.80074,-1.632403 c 1.09058,-2.223316 1.08878,-6.002972 -0.004,-8.113627 -1.77314,-3.425122 -4.36177,-4.908461 -8.58787,-4.921044 -2.68807,-0.008 -3.21209,0.109827 -4.59781,1.033867 -0.86019,0.573597 -1.70322,1.042901 -1.8734,1.042901 -0.17019,0 -1.99267,-1.119956 -4.04995,-2.488793 -2.05729,-1.368838 -5.81316,-3.5117 -8.34639,-4.761917 -4.11623,-2.031468 -4.60587,-2.377028 -4.60587,-3.250563 0,-4.603863 -4.50015,-8.83239 -9.39974,-8.83239 -3.60912,0 -6.68079,1.909749 -8.22627,5.114515 l -0.71178,1.475984 -6.716655,0.07842 c -5.872449,0.06857 -11.747432,0.66904 -14.634644,1.495786 -0.623433,0.178518 -1.00003,-0.144762 -1.934016,-1.660208 -1.449907,-2.352559 -3.827641,-3.829193 -6.636811,-4.121626 -2.75306,-0.286595 -4.321037,0.06086 -6.329212,1.402503 -3.141977,2.099135 -4.522154,6.166281 -3.603257,10.618211 l 0.273963,1.327328 -3.22626,2.085788 c -1.774435,1.147194 -3.439225,2.240599 -3.699527,2.429798 -0.315773,0.229519 -0.900904,0.01501 -1.758273,-0.644586 -4.212837,-3.241042 -9.28538,-3.300981 -12.687056,-0.149916 -2.351482,2.178239 -3.30141,6.721289 -2.114731,10.113747 0.631354,1.8049 0.696435,1.628884 -1.78362,4.823945 -2.791927,3.59685 -7.467262,11.361915 -9.517037,15.806436 -1.82164,3.949866 -1.855263,3.992434 -3.352217,4.243657 -7.467504,1.253236 -10.362367,10.588875 -4.867599,15.697518 0.915691,0.851342 2.078718,1.738078 2.584506,1.970523 0.7896,0.36287 0.882527,0.589555 0.657302,1.603314 -0.34615,1.558034 -0.338309,12.972693 0.01,14.547343 0.261947,1.18425 0.201021,1.26752 -1.601481,2.18881 -4.314223,2.20506 -6.017337,7.82275 -3.734576,12.31844 1.283586,2.52789 4.562755,4.93007 6.729961,4.93007 0.582983,0 1.295004,1.07872 3.191564,4.83527 2.976383,5.89536 5.799833,10.47549 9.46655,15.35638 l 2.775714,3.69484 -0.54472,2.35518 c -0.830064,3.58891 -0.0093,6.51441 2.49406,8.89008 2.432123,2.30803 5.28526,3.09122 8.627485,2.36825 1.487342,-0.32174 2.404714,-0.8388 3.764768,-2.12195 l 1.798233,-1.69657 3.307505,2.38852 c 1.819123,1.31369 3.360923,2.42161 3.426212,2.46205 0.06529,0.0404 -0.07432,0.79658 -0.310246,1.68031 -0.619782,2.32158 -0.143506,4.99357 1.26258,7.08325 2.427159,3.60717 6.103814,5.00473 10.170331,3.8659 z m 13.76192,-8.3243 c -4.072,-0.59299 -6.426108,-1.23575 -6.73942,-1.8401 -0.173478,-0.33462 -0.429464,-1.14463 -0.568859,-1.80003 -0.282935,-1.33026 0.39047,-2.24473 7.832959,-10.63698 l 3.720589,-4.19539 1.84315,0.96452 c 2.467048,1.291 5.572816,1.32038 8.203506,0.0776 l 1.87742,-0.88694 0.84508,0.75598 c 1.72065,1.53922 9.89725,8.99844 10.70831,9.76881 l 0.8395,0.79737 -1.24561,2.45971 -1.24561,2.45971 -3.44636,0.82754 c -1.89549,0.45514 -4.92745,1.01075 -6.73768,1.23469 -3.71879,0.46004 -12.767948,0.46774 -15.886975,0.0135 z m -25.680414,-9.7553 -2.933053,-2.17412 0.0023,-47.78382 c 0.0015,-26.281101 0.0099,-52.313475 0.01916,-57.849719 l 0.01682,-10.065894 3.029098,-1.974873 c 1.666073,-1.086177 3.184741,-1.974867 3.374881,-1.974867 0.190145,0 0.899696,0.340676 1.576772,0.757055 0.677081,0.416378 1.506948,0.757694 1.84415,0.758474 0.507312,9.61e-4 0.687759,0.770248 1.045836,4.457448 0.238012,2.450816 0.591042,5.662593 0.784521,7.137286 0.193482,1.474688 0.463955,4.290868 0.60106,6.258178 l 0.249282,3.576928 -1.389787,0.506894 c -7.537912,2.749285 -7.596139,13.85261 -0.08898,16.967192 l 1.754056,0.727722 0.0015,20.354565 0.0015,20.354561 -1.28628,0.42818 c -5.112498,1.70185 -7.772094,7.94177 -5.448475,12.78318 0.912583,1.90143 3.289005,4.08778 5.097504,4.68979 1.526698,0.50821 1.493339,-0.24059 0.496907,11.15232 -0.92454,10.57092 -1.017303,11.20444 -1.640613,11.20444 -0.270023,0 -1.286482,0.42664 -2.2588,0.94809 -0.972314,0.52146 -1.801192,0.94517 -1.841946,0.9416 -0.04076,-0.004 -1.393979,-0.98485 -3.007161,-2.18061 z m 13.384309,0.92401 c -0.869223,-0.45249 -1.587919,-1.07869 -1.597099,-1.39156 -0.02493,-0.84976 1.843731,-20.97191 1.95429,-21.04413 0.05239,-0.0342 0.678244,-0.29687 1.390799,-0.58366 0.712553,-0.28679 1.85084,-1.01321 2.529536,-1.61426 l 1.233983,-1.09281 1.23036,0.86847 c 0.676697,0.47765 2.459851,1.79473 3.96256,2.92684 l 2.732204,2.05838 -0.217856,1.75066 c -0.134245,1.07877 -0.0056,2.44507 0.335284,3.55999 l 0.553147,1.80933 -2.316264,2.55189 c -1.273942,1.40354 -3.980452,4.47178 -6.01447,6.81831 -2.034015,2.34652 -3.81023,4.25265 -3.947139,4.23584 -0.136909,-0.0168 -0.960111,-0.4008 -1.829335,-0.85329 z m 51.80157,-0.30736 c -2.16301,-1.14881 -3.66589,-1.31241 -6.34028,-0.69018 l -1.61384,0.37547 -2.89804,-2.79706 c -1.59392,-1.53839 -4.54483,-4.28798 -6.55758,-6.11021 -2.99271,-2.70942 -3.59612,-3.43266 -3.31148,-3.9691 0.19144,-0.36079 0.45912,-1.50044 0.59487,-2.53257 1.03628,-7.87935 -7.85728,-13.1865 -14.519549,-8.6644 l -1.917375,1.30144 -2.129078,-1.63547 c -1.170993,-0.89951 -2.932754,-2.18613 -3.915024,-2.85916 l -1.785952,-1.22368 -0.0035,-2.54163 c -0.003,-2.1343 -0.186831,-2.86403 -1.147306,-4.55334 -1.093515,-1.92331 -3.897755,-4.24569 -5.1266,-4.24569 -0.521682,0 -0.524722,-0.14479 -0.592679,-28.228563 l -0.03114,-12.869471 1.198874,-0.407143 c 1.872358,-0.635864 3.543164,-2.190209 4.741543,-4.411048 0.884103,-1.638416 1.09533,-2.487257 1.078116,-4.332582 l -0.0214,-2.294948 2.301999,-1.567475 c 1.266098,-0.862108 3.423602,-2.367049 4.794458,-3.344312 l 2.492462,-1.776841 1.455426,0.9654 c 3.063025,2.031745 7.239175,2.046293 10.251365,0.03571 2.22718,-1.486608 4.17569,-4.642253 4.17569,-6.762604 0,-0.781553 0.54675,-1.00758 6.48582,-2.681295 3.5672,-1.005285 9.427,-2.663657 13.02179,-3.68527 3.59478,-1.021612 6.60128,-1.791603 6.6811,-1.711091 0.15135,0.15266 -6.79797,6.731403 -18.09927,17.134123 -2.26598,2.085803 -6.23976,5.768444 -8.83062,8.183643 -2.59086,2.415203 -8.09457,7.528243 -12.230449,11.362315 -11.851252,10.986422 -18.788863,17.538942 -18.923678,17.873282 -0.153169,0.37984 -0.174094,0.35945 5.576055,5.43319 2.58493,2.28085 6.561017,5.8714 8.83575,7.97901 4.0004,3.70647 9.674142,8.81885 33.369052,30.06748 13.30395,11.93043 12.89589,11.22837 8.37075,14.40143 -1.54821,1.08562 -2.94407,1.94978 -3.10191,1.92035 -0.15784,-0.0294 -1.20559,-0.5414 -2.32834,-1.13771 z M 43.825899,143.50893 c -3.111163,-4.24326 -5.912647,-8.70428 -8.721817,-13.88844 -2.409785,-4.44712 -2.512925,-4.73649 -1.824814,-5.1197 0.941808,-0.52448 3.994813,-3.60275 4.513172,-4.55052 0.39303,-0.71861 0.488754,-0.71554 5.545846,0.17786 l 5.145907,0.90909 v 12.04279 12.04278 l -1.109292,0.5786 c -0.610118,0.31822 -1.201091,0.57859 -1.313277,0.57859 -0.11219,0 -1.118261,-1.24697 -2.235725,-2.77105 z m 107.303401,1.72772 c -0.93058,-0.31507 -1.88451,-0.67851 -2.11986,-0.80766 -0.34736,-0.19061 -19.78014,-17.58218 -25.51537,-22.83524 -0.82717,-0.75764 -6.24142,-5.60185 -12.03165,-10.76492 -5.79024,-5.16307 -10.74476,-9.59249 -11.01006,-9.84315 -0.492679,-0.46551 4.96351,-5.804747 22.4986,-22.016317 3.60742,-3.33514 7.99711,-7.437005 9.75486,-9.115257 8.71653,-8.322301 17.90745,-16.699701 19.08077,-17.391879 0.28328,-0.167115 0.84767,0.145232 1.42388,0.788004 1.20966,1.349402 7.69455,11.090413 7.69455,11.55805 0,0.192238 -0.42398,0.777164 -0.94217,1.299832 -2.67752,2.700649 -3.40488,7.058433 -1.74862,10.476494 l 0.86772,1.790744 -4.87081,8.827669 -4.87082,8.827666 -2.44002,-0.126564 c -4.11057,-0.213216 -7.69318,1.936785 -9.17071,5.503538 -0.29901,0.72183 -0.79315,1.2601 -1.15678,1.2601 -0.34913,0 -5.29582,-0.7612 -10.99264,-1.69156 -12.89823,-2.10643 -15.23632,-2.358915 -15.99139,-1.726851 -0.78539,0.657447 -0.72992,2.547391 0.0877,2.987191 0.59785,0.32159 15.49771,2.82225 22.84135,3.8335 4.52426,0.62301 4.44915,0.5884 5.17491,2.38454 0.7429,1.83856 2.83023,4.18142 4.57413,5.13408 0.78459,0.4286 2.05843,0.63076 3.97457,0.63076 3.19261,0 4.58748,-0.56057 6.8606,-2.75716 l 1.40875,-1.36131 2.4492,1.30829 2.4492,1.30829 -0.22466,1.54391 c -0.46887,3.22227 1.40593,7.08499 4.25663,8.77003 2.0338,1.20218 2.04652,1.12021 -1.22299,7.87753 -2.96917,6.13657 -8.47567,15.06663 -9.20892,14.93439 -0.10339,-0.0187 -0.94937,-0.29168 -1.87994,-0.60674 z M 43.408338,116.11836 c -2.274736,-0.47867 -4.262778,-0.88504 -4.417875,-0.90304 -0.155097,-0.018 -0.281991,-0.21218 -0.281991,-0.43148 0,-0.38512 8.825244,-4.90433 9.587729,-4.90965 0.232804,-0.002 0.330367,1.36968 0.25619,3.60097 -0.08256,2.48348 -0.257866,3.58959 -0.563986,3.55854 -0.244301,-0.0248 -2.30533,-0.43668 -4.580067,-0.91534 z m -7.895725,-6.62428 c -0.594332,-0.62571 -1.930691,-1.4575 -2.969685,-1.84843 -1.489358,-0.56038 -1.953068,-0.94156 -2.191488,-1.80143 -0.387611,-1.39795 -0.485365,-11.595529 -0.130971,-13.663148 0.241133,-1.40683 0.403239,-1.599858 1.521212,-1.811402 0.688222,-0.130227 1.887829,-0.672455 2.665783,-1.204953 l 1.414466,-0.96817 1.725262,0.992905 c 0.948895,0.5461 3.802298,2.051937 6.340897,3.346308 l 4.615633,2.353409 -0.103762,5.221041 -0.103759,5.22104 -5.594545,2.65024 c -3.076997,1.45764 -5.710166,2.65024 -5.851486,2.65024 -0.141323,0 -0.743221,-0.51194 -1.337557,-1.13765 z M 158.18012,107.6427 c -2.52575,-1.36616 -2.53691,-1.37934 -2.53792,-2.99905 -9.7e-4,-1.68882 -1.04854,-4.22351 -2.32832,-5.634137 l -0.73848,-0.81397 3.86426,-6.960381 c 2.12534,-3.82821 4.29559,-7.770899 4.82279,-8.761534 0.6788,-1.275516 1.12312,-1.732015 1.52252,-1.564246 0.31019,0.130299 1.20517,0.364508 1.98885,0.520463 0.78367,0.155955 1.48465,0.347896 1.55771,0.426534 0.0731,0.07864 0.41776,1.764216 0.76598,3.745732 0.73067,4.157842 1.17598,14.257668 0.78924,17.900189 l -0.26434,2.48979 -1.4322,0.23099 c -0.78771,0.12705 -2.29504,0.82965 -3.34962,1.56135 -1.0546,0.73169 -1.96382,1.30788 -2.0205,1.28041 -0.0567,-0.0275 -1.24467,-0.66743 -2.63997,-1.42214 z M 43.220344,87.684058 c -2.791719,-1.46218 -5.037583,-2.827433 -4.990801,-3.033892 0.04678,-0.206459 0.193137,-1.102352 0.325235,-1.990862 0.183048,-1.231202 0.431128,-1.659713 1.042913,-1.801444 0.441503,-0.10228 2.568293,-0.609438 4.726205,-1.127015 2.157906,-0.517575 3.981289,-0.882725 4.051957,-0.811443 0.07067,0.07128 0.08166,2.670652 0.02442,5.776384 L 48.2962,90.342569 Z M 36.424869,75.334712 c -0.915357,-0.97147 -1.964781,-1.926487 -2.332049,-2.122269 -0.622074,-0.331603 -0.590644,-0.527506 0.45932,-2.863153 1.728636,-3.845351 5.064125,-9.517845 8.36907,-14.232834 1.644782,-2.346526 3.070139,-4.26641 3.167454,-4.26641 0.09732,0 0.676119,0.260365 1.286237,0.578593 l 1.109292,0.578592 v 10.791282 10.791283 l -0.845976,0.193485 c -0.465288,0.106416 -2.80417,0.671443 -5.19752,1.255609 l -4.351542,1.06213 z M 83.63781,62.087884 c -0.37506,-0.418013 -1.581308,-1.203853 -2.680556,-1.746309 -2.336811,-1.153171 -2.026247,0.02252 -3.144695,-11.904661 -0.440084,-4.693056 -0.85953,-8.836085 -0.93211,-9.206736 -0.09491,-0.484704 0.38014,-0.935653 1.692066,-1.606198 l 1.824033,-0.932289 6.95997,5.683038 6.959973,5.683038 -0.558941,1.349285 c -0.611317,1.475724 -0.767123,3.906712 -0.367888,5.740108 0.245527,1.127521 0.130617,1.261376 -3.055718,3.559638 -1.820961,1.31343 -3.789106,2.782494 -4.373656,3.264585 -1.295621,1.068519 -1.460855,1.07681 -2.322478,0.116501 z m 26.15907,-15.074272 -1.63346,-2.129349 2.20895,-4.247381 2.20895,-4.247378 2.69071,-0.174172 c 3.67628,-0.23797 6.04443,-1.66969 7.84077,-4.740328 0.0276,-0.04723 2.02605,0.926743 4.44093,2.164388 4.91967,2.521363 10.6,6.161302 10.91753,6.995931 0.26612,0.699475 -0.87481,1.060982 -22.30898,7.068741 -2.37813,0.66656 -4.41569,1.262999 -4.52791,1.325415 -0.11222,0.06241 -0.93909,-0.844727 -1.83749,-2.015867 z M 94.456152,43.14837 c -2.163945,-1.728862 -9.902457,-8.089891 -11.148124,-9.163718 -0.608153,-0.524259 0.629001,-3.811158 1.570544,-4.17266 1.716312,-0.658969 10.130667,-1.474622 15.212298,-1.474622 h 5.19444 l 0.70156,1.650787 c 0.38585,0.907937 1.25357,2.284936 1.92825,3.059998 l 1.22671,1.409208 -2.29745,4.429926 -2.29745,4.429929 -2.31894,0.266177 c -1.27541,0.146394 -2.952574,0.582384 -3.727028,0.968861 l -1.4081,0.702688 z"
       id="path3" />
  </g>
</svg>
